<?xml version="1.0" encoding="UTF-8" standalone="no"?>
<!DOCTYPE svg PUBLIC "-//W3C//DTD SVG 1.1//EN"
 "http://www.w3.org/Graphics/SVG/1.1/DTD/svg11.dtd">
<!-- Generated by graphviz version 2.43.0 (0)
 -->
<!-- Title: dependencies Pages: 1 -->
<svg width="255pt" height="188pt"
 viewBox="0.00 0.00 254.89 188.00" xmlns="http://www.w3.org/2000/svg" xmlns:xlink="http://www.w3.org/1999/xlink">
<g id="graph0" class="graph" transform="scale(1 1) rotate(0) translate(4 184)">
<title>dependencies</title>
<polygon fill="white" stroke="transparent" points="-4,4 -4,-184 250.89,-184 250.89,4 -4,4"/>
<!-- not_exist -->
<g id="node1" class="node">
<title>not_exist</title>
<ellipse fill="none" stroke="black" cx="123.45" cy="-162" rx="42.79" ry="18"/>
<text text-anchor="middle" x="123.45" y="-158.3" font-family="Times,serif" font-size="14.00">not_exist</text>
</g>
<!-- libz.so -->
<g id="node2" class="node">
<title>libz.so</title>
<ellipse fill="none" stroke="black" cx="34.45" cy="-90" rx="34.39" ry="18"/>
<text text-anchor="middle" x="34.45" y="-86.3" font-family="Times,serif" font-size="14.00">libz.so</text>
</g>
<!-- not_exist&#45;&gt;libz.so -->
<g id="edge1" class="edge">
<title>not_exist&#45;&gt;libz.so</title>
<path fill="none" stroke="red" d="M99.89,-146.83C86.33,-137.17 69.55,-124.18 56.3,-113.17"/>
<polygon fill="red" stroke="red" points="58.45,-110.4 48.56,-106.61 53.93,-115.74 58.45,-110.4"/>
</g>
<!-- not_exist&#45;&gt;libz.so -->
<g id="edge7" class="edge">
<title>not_exist&#45;&gt;libz.so</title>
<path fill="none" stroke="red" d="M108.61,-144.76C96.63,-134.43 79.65,-121.01 64.89,-110.15"/>
<polygon fill="red" stroke="red" points="66.67,-107.12 56.51,-104.1 62.57,-112.8 66.67,-107.12"/>
</g>
<!-- libdl.so -->
<g id="node4" class="node">
<title>libdl.so</title>
<ellipse fill="none" stroke="black" cx="123.45" cy="-90" rx="37.09" ry="18"/>
<text text-anchor="middle" x="123.45" y="-86.3" font-family="Times,serif" font-size="14.00">libdl.so</text>
</g>
<!-- not_exist&#45;&gt;libdl.so -->
<g id="edge3" class="edge">
<title>not_exist&#45;&gt;libdl.so</title>
<path fill="none" stroke="red" d="M117.57,-144.05C116.74,-136.23 116.5,-126.75 116.86,-117.98"/>
<polygon fill="red" stroke="red" points="120.36,-118.01 117.59,-107.79 113.38,-117.51 120.36,-118.01"/>
</g>
<!-- not_exist&#45;&gt;libdl.so -->
<g id="edge9" class="edge">
<title>not_exist&#45;&gt;libdl.so</title>
<path fill="none" stroke="red" d="M129.33,-144.05C130.16,-136.23 130.39,-126.75 130.04,-117.98"/>
<polygon fill="red" stroke="red" points="133.51,-117.51 129.31,-107.79 126.53,-118.01 133.51,-117.51"/>
</g>
<!-- libc.so -->
<g id="node5" class="node">
<title>libc.so</title>
<ellipse fill="none" stroke="black" cx="212.45" cy="-90" rx="34.39" ry="18"/>
<text text-anchor="middle" x="212.45" y="-86.3" font-family="Times,serif" font-size="14.00">libc.so</text>
</g>
<!-- not_exist&#45;&gt;libc.so -->
<g id="edge5" class="edge">
<title>not_exist&#45;&gt;libc.so</title>
<path fill="none" stroke="red" d="M138.29,-144.76C150.26,-134.43 167.24,-121.01 182,-110.15"/>
<polygon fill="red" stroke="red" points="184.32,-112.8 190.38,-104.1 180.23,-107.12 184.32,-112.8"/>
</g>
<!-- not_exist&#45;&gt;libc.so -->
<g id="edge11" class="edge">
<title>not_exist&#45;&gt;libc.so</title>
<path fill="none" stroke="red" d="M147.01,-146.83C160.56,-137.17 177.34,-124.18 190.59,-113.17"/>
<polygon fill="red" stroke="red" points="192.97,-115.74 198.33,-106.61 188.44,-110.4 192.97,-115.74"/>
</g>
<!-- kexec -->
<g id="node3" class="node">
<title>kexec</title>
<ellipse fill="none" stroke="black" cx="66.45" cy="-18" rx="31.4" ry="18"/>
<text text-anchor="middle" x="66.45" y="-14.3" font-family="Times,serif" font-size="14.00">kexec</text>
</g>
<!-- libz.so&#45;&gt;kexec -->
<g id="edge2" class="edge">
<title>libz.so&#45;&gt;kexec</title>
<path fill="none" stroke="black" d="M42.03,-72.41C45.82,-64.13 50.48,-53.92 54.72,-44.66"/>
<polygon fill="black" stroke="black" points="57.94,-46.02 58.92,-35.47 51.58,-43.11 57.94,-46.02"/>
</g>
<!-- vmcore&#45;dmesg -->
<g id="node6" class="node">
<title>vmcore&#45;dmesg</title>
<ellipse fill="none" stroke="black" cx="179.45" cy="-18" rx="63.89" ry="18"/>
<text text-anchor="middle" x="179.45" y="-14.3" font-family="Times,serif" font-size="14.00">vmcore&#45;dmesg</text>
</g>
<!-- libz.so&#45;&gt;vmcore&#45;dmesg -->
<g id="edge8" class="edge">
<title>libz.so&#45;&gt;vmcore&#45;dmesg</title>
<path fill="none" stroke="black" d="M59.04,-77.13C81.06,-66.49 113.76,-50.71 139.52,-38.28"/>
<polygon fill="black" stroke="black" points="141.18,-41.36 148.67,-33.86 138.14,-35.06 141.18,-41.36"/>
</g>
<!-- libdl.so&#45;&gt;kexec -->
<g id="edge4" class="edge">
<title>libdl.so&#45;&gt;kexec</title>
<path fill="none" stroke="black" d="M110.51,-73.12C103.22,-64.17 93.98,-52.81 85.84,-42.81"/>
<polygon fill="black" stroke="black" points="88.36,-40.37 79.33,-34.82 82.93,-44.79 88.36,-40.37"/>
</g>
<!-- libdl.so&#45;&gt;vmcore&#45;dmesg -->
<g id="edge10" class="edge">
<title>libdl.so&#45;&gt;vmcore&#45;dmesg</title>
<path fill="none" stroke="black" d="M136.44,-72.76C143.33,-64.14 151.96,-53.36 159.67,-43.73"/>
<polygon fill="black" stroke="black" points="162.63,-45.63 166.14,-35.63 157.16,-41.26 162.63,-45.63"/>
</g>
<!-- libc.so&#45;&gt;kexec -->
<g id="edge6" class="edge">
<title>libc.so&#45;&gt;kexec</title>
<path fill="none" stroke="black" d="M188.01,-77.28C163.61,-65.59 125.97,-47.54 99.04,-34.62"/>
<polygon fill="black" stroke="black" points="100.53,-31.46 90,-30.29 97.5,-37.77 100.53,-31.46"/>
</g>
<!-- libc.so&#45;&gt;vmcore&#45;dmesg -->
<g id="edge12" class="edge">
<title>libc.so&#45;&gt;vmcore&#45;dmesg</title>
<path fill="none" stroke="black" d="M204.63,-72.41C200.78,-64.25 196.05,-54.22 191.73,-45.07"/>
<polygon fill="black" stroke="black" points="194.87,-43.51 187.44,-35.96 188.54,-46.49 194.87,-43.51"/>
</g>
</g>
</svg>
